<svg width="78" height="78" viewBox="0 0 92 92" fill="none" xmlns="http://www.w3.org/2000/svg">
            <path d="M46.0343 0C10.6498 0 -11.4654 38.3333 6.22682 69C23.919 99.6667 68.1495 99.6667 85.8418 69C89.8761 62.0071 92 54.0747 92 46C91.9683 20.608 71.4073 0.0316837 46.0343 0ZM63.7134 49.5384H49.5701V63.6923C49.5701 66.4162 46.6236 68.1186 44.2664 66.7567C43.1724 66.1246 42.4985 64.9565 42.4985 63.6923V49.5384H28.3552C25.6333 49.5383 23.9321 46.5896 25.2931 44.2306C25.9248 43.1359 27.092 42.4615 28.3552 42.4615H42.4985V28.3077C42.4985 25.5838 45.445 23.8813 47.8022 25.2433C48.8962 25.8754 49.5701 27.0435 49.5701 28.3077V42.4615H63.7134C66.4353 42.4615 68.1365 45.4103 66.7755 47.7692C66.1439 48.864 64.9766 49.5384 63.7134 49.5384Z" fill="#386641"/></svg>