<svg width="20" height="22" viewBox="0 0 20 22" fill="none" xmlns="http://www.w3.org/2000/svg">
<path d="M16.9188 9.6936H3.62943C2.58093 9.6936 1.73096 10.5457 1.73096 11.5968V18.2581C1.73096 19.3092 2.58093 20.1613 3.62943 20.1613H16.9188C17.9673 20.1613 18.8173 19.3092 18.8173 18.2581V11.5968C18.8173 10.5457 17.9673 9.6936 16.9188 9.6936Z" stroke="#A6A6A6" stroke-width="2" stroke-linecap="round" stroke-linejoin="round"/>
<path d="M6.05005 9.69354V5.88709C6.05005 4.62518 6.54259 3.41494 7.41932 2.52263C8.29606 1.63032 9.48516 1.12903 10.725 1.12903C11.9649 1.12903 13.154 1.63032 14.0308 2.52263C14.9075 3.41494 15.4 4.62518 15.4 5.88709V9.69354" stroke="#A6A6A6" stroke-width="2" stroke-linecap="round" stroke-linejoin="round"/>
</svg>
