<svg xmlns="http://www.w3.org/2000/svg" viewBox="0 0 16 16" id="Tag-2-Fill--Streamline-Mingcute-Fill" height="27" width="27"><desc>Tag 2 Fill Streamline Icon: https://streamlinehq.com</desc><g fill="none" fill-rule="nonzero"><path fill="#000000" d="M6.825333333333333 3.218a2 2 0 0 1 1.4146666666666665 0.586l4.323333333333333 4.323333333333333a2 2 0 0 1 0 2.828666666666667l-2.828666666666667 2.828a2 2 0 0 1 -2.828 0l-4.324 -4.323333333333333a2 2 0 0 1 -0.5853333333333333 -1.414V4.884666666666666a1.6666666666666665 1.6666666666666665 0 0 1 1.6666666666666665 -1.6666666666666665zm-0.3906666666666666 3.0239999999999996a1 1 0 1 0 -1.4133333333333333 1.4133333333333333 1 1 0 0 0 1.4133333333333333 -1.4133333333333333"></path></g></svg>