<svg xmlns="http://www.w3.org/2000/svg" viewBox="0 0 24 24" id="Scan-Fill--Streamline-Mingcute-Fill" height="40" width="40"><desc>Scan Fill Streamline Icon: https://streamlinehq.com</desc><g fill="none" fill-rule="nonzero"><path d="M24 0v24H0V0h24ZM12.593 23.258l-0.011 0.002 -0.071 0.035 -0.02 0.004 -0.014 -0.004 -0.071 -0.035c-0.01 -0.004 -0.019 -0.001 -0.024 0.005l-0.004 0.01 -0.017 0.428 0.005 0.02 0.01 0.013 0.104 0.074 0.015 0.004 0.012 -0.004 0.104 -0.074 0.012 -0.016 0.004 -0.017 -0.017 -0.427c-0.002 -0.01 -0.009 -0.017 -0.017 -0.018Zm0.265 -0.113 -0.013 0.002 -0.185 0.093 -0.01 0.01 -0.003 0.011 0.018 0.43 0.005 0.012 0.008 0.007 0.201 0.093c0.012 0.004 0.023 0 0.029 -0.008l0.004 -0.014 -0.034 -0.614c-0.003 -0.012 -0.01 -0.02 -0.02 -0.022Zm-0.715 0.002a0.023 0.023 0 0 0 -0.027 0.006l-0.006 0.014 -0.034 0.614c0 0.012 0.007 0.02 0.017 0.024l0.015 -0.002 0.201 -0.093 0.01 -0.008 0.004 -0.011 0.017 -0.43 -0.003 -0.012 -0.01 -0.01 -0.184 -0.092Z" stroke-width="1"></path><path fill="#000000" d="M4 14.5A1.5 1.5 0 0 1 5.5 16v2.5H9a1.5 1.5 0 0 1 0 3H5A2.5 2.5 0 0 1 2.5 19v-3A1.5 1.5 0 0 1 4 14.5Zm16 0a1.5 1.5 0 0 1 1.493 1.356L21.5 16v3a2.5 2.5 0 0 1 -2.336 2.495L19 21.5h-4a1.5 1.5 0 0 1 -0.144 -2.993L15 18.5h3.5V16a1.5 1.5 0 0 1 1.5 -1.5Zm0 -4a1.5 1.5 0 0 1 0.144 2.993L20 13.5H4a1.5 1.5 0 0 1 -0.144 -2.993L4 10.5h16Zm-11 -8a1.5 1.5 0 0 1 0.144 2.993L9 5.5H5.5V8a1.5 1.5 0 0 1 -2.993 0.144L2.5 8V5a2.5 2.5 0 0 1 2.336 -2.495L5 2.5h4Zm10 0a2.5 2.5 0 0 1 2.495 2.336L21.5 5v3a1.5 1.5 0 0 1 -2.993 0.144L18.5 8V5.5H15a1.5 1.5 0 0 1 -0.144 -2.993L15 2.5h4Z" stroke-width="1"></path></g></svg>